<?xml version="1.0" encoding="utf-8"?>
<!-- Generator: Adobe Illustrator 16.0.0, SVG Export Plug-In . SVG Version: 6.00 Build 0)  -->
<!DOCTYPE svg PUBLIC "-//W3C//DTD SVG 1.1//EN" "http://www.w3.org/Graphics/SVG/1.1/DTD/svg11.dtd">
<svg version="1.1" id="Layer_1" xmlns="http://www.w3.org/2000/svg" xmlns:xlink="http://www.w3.org/1999/xlink" x="0px" y="0px"
	 width="294.5px" height="293px" viewBox="0 0 294.5 293" enable-background="new 0 0 294.5 293" xml:space="preserve">
<g id="Logo">
	<g>
		<path fill="#5F3416" d="M257.967,149.197h-55.896l-1.353-25.158l33.251,3.607l1.249-11.5L49.677,96.016l-1.246,11.5l33.683,3.655
			c-8.527,16.483-9.923,59.312-9.923,59.312v72.182h134.443h0.463h32.827l-17.585-40.718L257.967,149.197z M79.133,235.725v-65.122
			c0.046-1.315,0.56-14.618,2.425-28.64c2.96-22.25,6.93-28.462,8.236-29.959L193.73,123.28l6.046,112.445H79.133z"/>
	</g>
	<g>
		<polygon fill="#B66E3C" points="202.529,112.6 186.01,52.026 139.646,79.296 113.374,39.996 82.697,99.6 		"/>
	</g>
	<g>
		<g>
			<g>
				<g>
					<path fill="#231F20" d="M72.281,201.397v41.178h135.543l-2.462-41.178H72.281z"/>
				</g>
			</g>
		</g>
	</g>
	<g>
		<path fill="#F5A37B" d="M197.931,201.397l-4.201-78.117L89.794,112.004c-1.306,1.497-5.276,7.708-8.236,29.959
			c-1.865,14.022-2.379,27.325-2.425,28.64v30.794H197.931z"/>
	</g>
	<g>
		<g>
			<g>
				<polygon fill="#B66E3C" points="49.053,149.197 142.057,149.197 106.434,201.946 124.014,242.665 49.053,242.665 				"/>
			</g>
		</g>
	</g>
	<g>
		<g>
			<g>
				<path fill="#231F20" d="M165.751,141.598l-41.852-7.77C123.9,133.828,150.584,161.712,165.751,141.598z"/>
			</g>
		</g>
		<g>
			<g>
				<path fill="#231F20" d="M151.973,151.2L151.973,151.2c-14.482,0-29.122-15.126-29.741-15.766l-4.96-5.187l52.577,9.757
					l-2.251,2.983C163.489,148.439,158.23,151.2,151.973,151.2z M131.69,137.63c5.197,4.066,12.956,8.944,20.283,8.944l0,0
					c3.541,0,6.601-1.138,9.259-3.462L131.69,137.63z"/>
			</g>
		</g>
	</g>
	<g>
		<g>
			<g>
				<path fill="#231F20" d="M178.728,142.776l27.12-1.263C205.848,141.513,188.884,159.017,178.728,142.776z"/>
			</g>
		</g>
		<g>
			<g>
				<path fill="#231F20" d="M189.679,151.994c-3.61,0-8.783-1.388-12.913-7.99l-2.097-3.354l36.904-1.718l-4.062,4.192
					C207.159,143.487,198.808,151.994,189.679,151.994z M183.392,144.874c1.846,1.673,3.925,2.492,6.287,2.492
					c3.262,0,6.549-1.532,9.166-3.21L183.392,144.874z"/>
			</g>
		</g>
	</g>
</g>
</svg>
