<?xml version="1.0" encoding="utf-8"?>
<!-- Generator: Adobe Illustrator 16.0.0, SVG Export Plug-In . SVG Version: 6.00 Build 0)  -->
<!DOCTYPE svg PUBLIC "-//W3C//DTD SVG 1.1//EN" "http://www.w3.org/Graphics/SVG/1.1/DTD/svg11.dtd">
<svg version="1.1" id="Layer_1" xmlns="http://www.w3.org/2000/svg" xmlns:xlink="http://www.w3.org/1999/xlink" x="0px" y="0px"
	 width="659.5px" height="310.5px" viewBox="0 0 659.5 310.5" enable-background="new 0 0 659.5 310.5" xml:space="preserve">
<g id="Logo">
	<g>
		<path fill="#231F20" d="M281.034,224.424c0-1.923,0.112-3.699,0.341-5.326c0.227-1.626,0.568-3.384,1.022-5.272h10.545v4.355
			c0,2.413,0.147,4.546,0.446,6.4c0.296,1.854,0.787,3.419,1.469,4.695c0.682,1.277,1.59,2.239,2.728,2.886
			c1.136,0.647,2.526,0.97,4.171,0.97c2.587,0,4.564-0.709,5.929-2.124c1.363-1.417,2.045-3.489,2.045-6.217
			c0-1.398-0.097-2.684-0.289-3.856c-0.193-1.171-0.524-2.334-0.997-3.489c-0.471-1.154-1.11-2.369-1.914-3.646
			c-0.806-1.276-1.836-2.702-3.096-4.275l-14.165-16.84c-2.518-3.217-4.459-6.46-5.823-9.731c-1.364-3.271-2.046-6.759-2.046-10.467
			c0-2.971,0.463-5.7,1.39-8.184c0.926-2.483,2.264-4.625,4.014-6.426c1.749-1.801,3.908-3.201,6.479-4.198
			c2.57-0.996,5.482-1.495,8.735-1.495c3.952,0,7.247,0.561,9.889,1.68c2.641,1.12,4.748,2.588,6.321,4.406
			c1.574,1.819,2.683,3.856,3.332,6.113c0.646,2.255,0.97,4.521,0.97,6.793c0,1.924-0.149,3.699-0.446,5.324
			c-0.297,1.626-0.639,3.419-1.023,5.377h-10.492v-4.249c0-4.756-0.682-8.402-2.046-10.938c-1.363-2.535-3.585-3.804-6.662-3.804
			c-2.554,0-4.459,0.708-5.719,2.125c-1.259,1.416-1.888,3.314-1.888,5.692c0,1.259,0.095,2.397,0.289,3.41
			c0.191,1.015,0.472,1.95,0.839,2.806c0.368,0.859,0.813,1.689,1.337,2.493c0.526,0.805,1.12,1.645,1.785,2.518l15.791,19.096
			c2.868,3.744,5.071,7.337,6.61,10.781c1.539,3.445,2.309,7.091,2.309,10.938c0,3.184-0.498,6.052-1.495,8.604
			c-0.997,2.554-2.422,4.722-4.275,6.505c-1.854,1.784-4.092,3.156-6.715,4.119c-2.623,0.961-5.579,1.442-8.866,1.442
			c-4.058,0-7.424-0.542-10.099-1.626c-2.675-1.083-4.809-2.518-6.4-4.301c-1.593-1.784-2.711-3.812-3.357-6.086
			C281.356,229.128,281.034,226.803,281.034,224.424z"/>
		<path fill="#231F20" d="M331.427,152.971h13.587v37.51h16.106v-37.51h13.588v89.604H361.12v-41.393h-16.106v41.393h-13.587
			V152.971z"/>
		<path fill="#231F20" d="M399.993,152.971h15.634l16.578,89.604H418.46l-2.466-16.053h-16.368l-2.361,16.053h-13.797
			L399.993,152.971z M414.42,216.292l-6.295-44.646h-0.578l-6.348,44.646H414.42z"/>
		<path fill="#231F20" d="M440.861,152.971h14.112c2.132,0,4.345,0.062,6.636,0.183c2.29,0.124,4.529,0.499,6.715,1.128
			c2.185,0.63,4.249,1.6,6.191,2.911c1.941,1.312,3.646,3.148,5.114,5.508c1.468,2.361,2.631,5.334,3.489,8.919
			c0.856,3.586,1.285,7.966,1.285,13.142v26.021c0,5.176-0.429,9.566-1.285,13.167c-0.858,3.603-2.021,6.576-3.489,8.919
			s-3.173,4.17-5.114,5.481c-1.942,1.312-4.006,2.282-6.191,2.912c-2.187,0.63-4.425,1.006-6.715,1.128
			c-2.291,0.123-4.504,0.183-6.636,0.183h-14.112V152.971z M457.911,233.08c2.448,0,4.467-0.315,6.06-0.945
			c1.591-0.629,2.85-1.739,3.777-3.331c0.926-1.591,1.565-3.759,1.916-6.505c0.348-2.745,0.524-6.216,0.524-10.414V184.08
			c0-4.196-0.176-7.667-0.524-10.413c-0.35-2.745-0.99-4.913-1.916-6.505c-0.927-1.591-2.186-2.701-3.777-3.331
			c-1.593-0.63-3.612-0.944-6.06-0.944h-3.462v70.194H457.911z"/>
		<path fill="#231F20" d="M516.354,243.362c-1.436,0-2.991-0.113-4.669-0.342c-1.679-0.227-3.341-0.707-4.984-1.442
			c-1.645-0.734-3.226-1.774-4.748-3.121c-1.521-1.346-2.868-3.122-4.039-5.325c-1.173-2.203-2.108-4.922-2.806-8.158
			c-0.702-3.234-1.05-7.09-1.05-11.568v-31.738c0-4.513,0.358-8.368,1.075-11.568c0.716-3.2,1.669-5.893,2.859-8.079
			c1.188-2.185,2.544-3.925,4.065-5.22c1.521-1.293,3.112-2.282,4.773-2.964c1.661-0.683,3.313-1.128,4.958-1.338
			c1.644-0.21,3.165-0.315,4.564-0.315c1.328,0,2.806,0.098,4.433,0.29c1.626,0.192,3.252,0.612,4.878,1.259
			c1.626,0.647,3.208,1.609,4.748,2.885c1.539,1.277,2.903,3.009,4.092,5.193c1.188,2.187,2.142,4.897,2.859,8.132
			c0.716,3.236,1.076,7.144,1.076,11.726v31.738c0,4.443-0.367,8.264-1.102,11.464c-0.734,3.199-1.697,5.91-2.885,8.131
			c-1.19,2.222-2.562,4.006-4.118,5.351c-1.558,1.347-3.148,2.396-4.774,3.148c-1.627,0.753-3.245,1.25-4.853,1.495
			C519.099,243.239,517.647,243.362,516.354,243.362z M516.354,233.132c1.328,0,2.492-0.227,3.488-0.682
			c0.997-0.454,1.818-1.24,2.466-2.36c0.646-1.119,1.135-2.597,1.468-4.433c0.333-1.836,0.499-4.152,0.499-6.952v-40.762
			c0-2.867-0.167-5.264-0.499-7.188c-0.333-1.922-0.822-3.471-1.468-4.643c-0.648-1.171-1.469-2.001-2.466-2.492
			c-0.997-0.489-2.16-0.734-3.488-0.734c-1.365,0-2.554,0.245-3.567,0.734c-1.016,0.49-1.855,1.321-2.519,2.492
			c-0.664,1.172-1.163,2.721-1.495,4.643c-0.333,1.924-0.499,4.32-0.499,7.188v40.762c0,2.8,0.166,5.116,0.499,6.952
			c0.332,1.836,0.831,3.314,1.495,4.433c0.664,1.12,1.503,1.907,2.519,2.36C513.8,232.905,514.989,233.132,516.354,233.132z"/>
		<path fill="#231F20" d="M545.575,152.971h13.011l6.033,54.14l0.683,12.643h1.311l1.259-14.217l9.653-52.566h10.86l9.233,52.566
			l1.05,14.217h1.362l0.63-12.643l5.509-54.14h13.063l-12.539,89.604h-13.797l-7.397-43.071l-2.308-18.729h-1.05l-2.255,18.729
			l-7.764,43.071h-13.64L545.575,152.971z"/>
	</g>
	<g>
		<path fill="#5F3416" d="M257.967,149.197h-55.896l-1.353-25.158l33.251,3.607l1.249-11.5L49.677,96.016l-1.246,11.5l33.683,3.655
			c-8.527,16.483-9.923,59.312-9.923,59.312v72.182h134.443h0.463h32.827l-17.585-40.718L257.967,149.197z M79.133,235.725v-65.122
			c0.046-1.315,0.56-14.618,2.425-28.64c2.96-22.25,6.93-28.462,8.236-29.959L193.73,123.28l6.046,112.445H79.133z"/>
	</g>
	<g>
		<polygon fill="#B66E3C" points="202.529,112.6 186.01,52.026 139.646,79.296 113.374,39.996 82.697,99.6 		"/>
	</g>
	<g>
		<g>
			<g>
				<g>
					<path fill="#231F20" d="M72.281,201.397v41.178h135.543l-2.462-41.178H72.281z"/>
				</g>
			</g>
		</g>
	</g>
	<g>
		<path fill="#F5A37B" d="M197.931,201.397l-4.201-78.117L89.794,112.004c-1.306,1.497-5.276,7.708-8.236,29.959
			c-1.865,14.022-2.379,27.325-2.425,28.64v30.794H197.931z"/>
	</g>
	<g>
		<g>
			<g>
				<polygon fill="#B66E3C" points="49.053,149.197 142.057,149.197 106.434,201.946 124.014,242.665 49.053,242.665 				"/>
			</g>
		</g>
	</g>
	<g>
		<g>
			<g>
				<path fill="#231F20" d="M165.751,141.598l-41.852-7.77C123.9,133.828,150.584,161.712,165.751,141.598z"/>
			</g>
		</g>
		<g>
			<g>
				<path fill="#231F20" d="M151.973,151.2L151.973,151.2c-14.482,0-29.122-15.126-29.741-15.766l-4.96-5.187l52.577,9.757
					l-2.251,2.983C163.489,148.439,158.23,151.2,151.973,151.2z M131.69,137.63c5.197,4.066,12.956,8.944,20.283,8.944l0,0
					c3.541,0,6.601-1.138,9.259-3.462L131.69,137.63z"/>
			</g>
		</g>
	</g>
	<g>
		<g>
			<g>
				<path fill="#231F20" d="M178.728,142.776l27.12-1.263C205.848,141.513,188.884,159.017,178.728,142.776z"/>
			</g>
		</g>
		<g>
			<g>
				<path fill="#231F20" d="M189.679,151.994c-3.61,0-8.783-1.388-12.913-7.99l-2.097-3.354l36.904-1.718l-4.062,4.192
					C207.159,143.487,198.808,151.994,189.679,151.994z M183.392,144.874c1.846,1.673,3.925,2.492,6.287,2.492
					c3.262,0,6.549-1.532,9.166-3.21L183.392,144.874z"/>
			</g>
		</g>
	</g>
</g>
</svg>
