<svg xmlns="http://www.w3.org/2000/svg" xml:space="preserve" width="659.5" height="310.5"><path fill="#231F20" d="M281.034 224.424q-.001-2.885.341-5.326a56 56 0 0 1 1.022-5.272h10.545v4.355q-.001 3.62.446 6.4.445 2.781 1.469 4.695 1.022 1.916 2.728 2.886 1.704.97 4.171.97 3.881 0 5.929-2.124 2.045-2.125 2.045-6.217a24 24 0 0 0-.289-3.856 16 16 0 0 0-.997-3.489q-.707-1.73-1.914-3.646t-3.096-4.275l-14.165-16.84q-3.777-4.825-5.823-9.731t-2.046-10.467q0-4.457 1.39-8.184 1.389-3.725 4.014-6.426 2.623-2.702 6.479-4.198 3.855-1.494 8.735-1.495 5.927 0 9.889 1.68t6.321 4.406q2.36 2.728 3.332 6.113a24.6 24.6 0 0 1 .97 6.793q0 2.886-.446 5.324a426 426 0 0 1-1.023 5.377h-10.492v-4.249q0-7.134-2.046-10.938-2.046-3.803-6.662-3.804-3.83 0-5.719 2.125-1.888 2.124-1.888 5.692-.001 1.89.289 3.41.287 1.522.839 2.806.552 1.288 1.337 2.493.788 1.208 1.785 2.518l15.791 19.096q4.302 5.615 6.61 10.781t2.309 10.938q0 4.776-1.495 8.604-1.496 3.83-4.275 6.505t-6.715 4.119q-3.935 1.442-8.866 1.442-6.087 0-10.099-1.626t-6.4-4.301a15.3 15.3 0 0 1-3.357-6.086 25.2 25.2 0 0 1-.973-6.978m50.393-71.453h13.587v37.51h16.106v-37.51h13.588v89.604H361.12v-41.393h-16.106v41.393h-13.587zm68.566 0h15.634l16.578 89.604H418.46l-2.466-16.053h-16.368l-2.361 16.053h-13.797zm14.427 63.321-6.295-44.646h-.578l-6.348 44.646zm26.441-63.321h14.112q3.199 0 6.636.183a30 30 0 0 1 6.715 1.128q3.278.945 6.191 2.911 2.912 1.968 5.114 5.508t3.489 8.919q1.284 5.379 1.285 13.142v26.021q0 7.765-1.285 13.167-1.287 5.404-3.489 8.919c-2.202 3.515-3.173 4.17-5.114 5.481a21.8 21.8 0 0 1-6.191 2.912 30 30 0 0 1-6.715 1.128q-3.437.184-6.636.183h-14.112zm17.05 80.109q3.671 0 6.06-.945 2.387-.943 3.777-3.331 1.39-2.386 1.916-6.505.523-4.117.524-10.414V184.08q-.001-6.294-.524-10.413-.526-4.117-1.916-6.505-1.39-2.386-3.777-3.331-2.389-.945-6.06-.944h-3.462v70.194h3.462zm58.443 10.282q-2.153 0-4.669-.342a18.1 18.1 0 0 1-4.984-1.442q-2.466-1.1-4.748-3.121t-4.039-5.325q-1.76-3.304-2.806-8.158-1.051-4.851-1.05-11.568v-31.738q0-6.769 1.075-11.568 1.074-4.8 2.859-8.079 1.783-3.278 4.065-5.22 2.282-1.94 4.773-2.964t4.958-1.338a36 36 0 0 1 4.564-.315q1.992.001 4.433.29a19.3 19.3 0 0 1 4.878 1.259q2.438.97 4.748 2.885 2.308 1.916 4.092 5.193 1.783 3.28 2.859 8.132 1.075 4.853 1.076 11.726v31.738q0 6.664-1.102 11.464-1.102 4.799-2.885 8.131-1.784 3.333-4.118 5.351-2.336 2.02-4.774 3.148-2.44 1.128-4.853 1.495-2.411.365-4.352.366m0-10.23q1.993 0 3.488-.682 1.495-.68 2.466-2.36.969-1.679 1.468-4.433.5-2.753.499-6.952v-40.762q0-4.301-.499-7.188-.5-2.884-1.468-4.643-.971-1.756-2.466-2.492-1.496-.734-3.488-.734-2.048 0-3.567.734-1.524.735-2.519 2.492-.996 1.759-1.495 4.643-.5 2.886-.499 7.188v40.762q0 4.199.499 6.952t1.495 4.433 2.519 2.36q1.52.682 3.567.682m29.221-80.161h13.011l6.033 54.14.683 12.643h1.311l1.259-14.217 9.653-52.566h10.86l9.233 52.566 1.05 14.217h1.362l.63-12.643 5.509-54.14h13.063l-12.539 89.604h-13.797l-7.397-43.071-2.308-18.729h-1.05l-2.255 18.729-7.764 43.071h-13.64z"/><path fill="#5F3416" d="M257.967 149.197h-55.896l-1.353-25.158 33.251 3.607 1.249-11.5-185.541-20.13-1.246 11.5 33.683 3.655c-8.527 16.483-9.923 59.312-9.923 59.312v72.182h167.733l-17.585-40.718zM79.133 235.725v-65.122c.046-1.315.56-14.618 2.425-28.64 2.96-22.25 6.93-28.462 8.236-29.959L193.73 123.28l6.046 112.445z"/><path fill="#B66E3C" d="M202.529 112.6 186.01 52.026l-46.364 27.27-26.272-39.3L82.697 99.6z"/><path fill="#231F20" d="M72.281 201.397v41.178h135.543l-2.462-41.178z"/><path fill="#F5A37B" d="m197.931 201.397-4.201-78.117-103.936-11.276c-1.306 1.497-5.276 7.708-8.236 29.959-1.865 14.022-2.379 27.325-2.425 28.64v30.794z"/><path fill="#B66E3C" d="M49.053 149.197h93.004l-35.623 52.749 17.58 40.719H49.053z"/><path fill="#231F20" d="m165.751 141.598-41.852-7.77c.001 0 26.685 27.884 41.852 7.77"/><path fill="#231F20" d="M151.973 151.2c-14.482 0-29.122-15.126-29.741-15.766l-4.96-5.187 52.577 9.757-2.251 2.983c-4.109 5.452-9.368 8.213-15.625 8.213m-20.283-13.57c5.197 4.066 12.956 8.944 20.283 8.944 3.541 0 6.601-1.138 9.259-3.462zm47.038 5.146 27.12-1.263s-16.964 17.504-27.12 1.263"/><path fill="#231F20" d="M189.679 151.994c-3.61 0-8.783-1.388-12.913-7.99l-2.097-3.354 36.904-1.718-4.062 4.192c-.352.363-8.703 8.87-17.832 8.87m-6.287-7.12c1.846 1.673 3.925 2.492 6.287 2.492 3.262 0 6.549-1.532 9.166-3.21z"/></svg>