<svg xmlns="http://www.w3.org/2000/svg" xml:space="preserve" width="294.5" height="293"><path fill="#5F3416" d="M257.967 149.197h-55.896l-1.353-25.158 33.251 3.607 1.249-11.5-185.541-20.13-1.246 11.5 33.683 3.655c-8.527 16.483-9.923 59.312-9.923 59.312v72.182h167.733l-17.585-40.718zM79.133 235.725v-65.122c.046-1.315.56-14.618 2.425-28.64 2.96-22.25 6.93-28.462 8.236-29.959L193.73 123.28l6.046 112.445z"/><path fill="#B66E3C" d="M202.529 112.6 186.01 52.026l-46.364 27.27-26.272-39.3L82.697 99.6z"/><path fill="#231F20" d="M72.281 201.397v41.178h135.543l-2.462-41.178z"/><path fill="#F5A37B" d="m197.931 201.397-4.201-78.117-103.936-11.276c-1.306 1.497-5.276 7.708-8.236 29.959-1.865 14.022-2.379 27.325-2.425 28.64v30.794z"/><path fill="#B66E3C" d="M49.053 149.197h93.004l-35.623 52.749 17.58 40.719H49.053z"/><path fill="#231F20" d="m165.751 141.598-41.852-7.77c.001 0 26.685 27.884 41.852 7.77"/><path fill="#231F20" d="M151.973 151.2c-14.482 0-29.122-15.126-29.741-15.766l-4.96-5.187 52.577 9.757-2.251 2.983c-4.109 5.452-9.368 8.213-15.625 8.213m-20.283-13.57c5.197 4.066 12.956 8.944 20.283 8.944 3.541 0 6.601-1.138 9.259-3.462zm47.038 5.146 27.12-1.263s-16.964 17.504-27.12 1.263"/><path fill="#231F20" d="M189.679 151.994c-3.61 0-8.783-1.388-12.913-7.99l-2.097-3.354 36.904-1.718-4.062 4.192c-.352.363-8.703 8.87-17.832 8.87m-6.287-7.12c1.846 1.673 3.925 2.492 6.287 2.492 3.262 0 6.549-1.532 9.166-3.21z"/></svg>